<?xml version="1.0" encoding="UTF-8"?>
<svg width="24px" height="24px" viewBox="0 0 24 24" version="1.1" xmlns="http://www.w3.org/2000/svg" xmlns:xlink="http://www.w3.org/1999/xlink">
    <!-- Generator: Sketch 40 (33762) - http://www.bohemiancoding.com/sketch -->
    <title>脸书</title>
    <desc>Created with Sketch.</desc>
    <defs></defs>
    <g id="PC-UI" stroke="none" stroke-width="1" fill="none" fill-rule="evenodd">
        <g id="主页面" transform="translate(-512.000000, -287.000000)" fill="#FFFFFF">
            <g id="登录页面" transform="translate(0.000000, 22.000000)">
                <g id="登录主界面" transform="translate(369.000000, 258.000000)">
                    <g id="第三方登录">
                        <g id="脸书" transform="translate(133.000000, 0.000000)">
                            <g id="脸书图标" transform="translate(10.000000, 7.000000)">
                                <path d="M15.9268293,2 C15.3170732,2 14.7317073,2.07604563 14.0487805,2.35487959 C12.6585366,2.93789607 11.9512195,4.30671736 11.9512195,6.43599493 L11.9512195,8.51457541 L10,8.51457541 L10,11.9873257 L11.9512195,11.9873257 L11.9512195,22 L15.9268293,22 L15.9268293,11.9873257 L18.6341463,11.9873257 L19,8.51457541 L15.9268293,8.51457541 L15.9268293,6.94296578 C15.9268293,6.46134347 15.9756098,6.10646388 16.097561,5.90367554 C16.2682927,5.59949303 16.6097561,5.44740177 17.1463415,5.44740177 L18.9512195,5.44740177 L18.9512195,2 L15.9268293,2 Z" id="Path"></path>
                            </g>
                        </g>
                    </g>
                </g>
            </g>
        </g>
    </g>
</svg>