<?xml version="1.0" encoding="UTF-8"?>
<svg width="24px" height="24px" viewBox="0 0 24 24" version="1.1" xmlns="http://www.w3.org/2000/svg" xmlns:xlink="http://www.w3.org/1999/xlink">
    <!-- Generator: Sketch 40 (33762) - http://www.bohemiancoding.com/sketch -->
    <title>微信</title>
    <desc>Created with Sketch.</desc>
    <defs></defs>
    <g id="PC-UI" stroke="none" stroke-width="1" fill="none" fill-rule="evenodd">
        <g id="主页面" transform="translate(-379.000000, -287.000000)" stroke-width="0.666666667">
            <g id="登录页面" transform="translate(0.000000, 22.000000)">
                <g id="登录主界面" transform="translate(369.000000, 258.000000)">
                    <g id="第三方登录">
                        <g id="微信">
                            <g id="微信图标" transform="translate(10.000000, 7.000000)">
                                <path d="M5.21112428,15.9564018 C5.42936902,16.0915989 4.48681914,17.9944903 4.72144272,18.110633 C5.11525575,18.3055772 6.70038605,16.6958395 7.13420624,16.8319585 C7.99681373,17.1026172 8.93090689,17.250615 9.90625,17.250615 C14.2727515,17.250615 17.8125,14.284364 17.8125,10.6253075 C17.8125,6.96625103 14.2727515,4 9.90625,4 C5.53974848,4 2,6.96625103 2,10.6253075 C2,12.8111075 3.2631502,14.7496815 5.21112428,15.9564018 Z" id="Oval-225" stroke="#FFFFFF" fill="#FFFFFF"></path>
                                <path d="M5.80985504,14.9020674 C5.88777604,14.9531755 6.278215,15.1271165 6.25257698,15.3751865 C6.19646669,15.9181017 6.0290694,16.289884 6.0290694,16.289884 C6.0290694,16.289884 6.48631952,15.7792938 6.82731116,15.5333093 C6.97900081,15.4238835 7.2594035,15.5059238 7.3380375,15.533309 C8.1263407,15.8078448 8.99447676,15.9598355 9.90625,15.9598355 C13.51336,15.9598355 16.4375,13.5810121 16.4375,10.6465844 C16.4375,7.71215674 13.51336,5.33333333 9.90625,5.33333333 C6.29914005,5.33333333 3.375,7.71215674 3.375,10.6465844 C3.375,12.3191124 4.32494421,13.9281191 5.80985504,14.9020674 Z" id="Oval-230" stroke="#FFFFFF" fill="#FFFFFF"></path>
                                <ellipse id="Path" stroke="#3BBF4C" fill="#3BBF4C" cx="7.15625" cy="8.33333333" rx="1.03125" ry="1"></ellipse>
                                <ellipse id="Path" stroke="#3BBF4C" fill="#3BBF4C" cx="12.65625" cy="8.33333333" rx="1.03125" ry="1"></ellipse>
                                <path d="M17.46875,20.6175213 C18.2379342,20.6175213 18.9760625,20.5094434 19.6614036,20.3109514 C19.8864298,20.2457781 21.4092924,21.5426349 21.6221675,21.4585921 C21.9675522,21.3222348 20.9924036,19.7900867 21.300491,19.6083732 C22.9362497,18.6435837 24,17.0771462 24,15.3087606 C24,12.376813 21.07586,10 17.46875,10 C13.86164,10 10.9375,12.376813 10.9375,15.3087606 C10.9375,18.2407083 13.86164,20.6175213 17.46875,20.6175213 Z" id="Path" stroke="#3BBF4C" fill="#FFFFFF"></path>
                                <ellipse id="Path" stroke="#3BBF4C" fill="#3BBF4C" cx="15.0625" cy="13.3333333" rx="0.6875" ry="0.666666667"></ellipse>
                                <ellipse id="Path" stroke="#3BBF4C" fill="#3BBF4C" cx="19.1875" cy="13.3333333" rx="0.6875" ry="0.666666667"></ellipse>
                            </g>
                        </g>
                    </g>
                </g>
            </g>
        </g>
    </g>
</svg>