<?xml version="1.0" encoding="UTF-8"?>
<svg width="24px" height="24px" viewBox="0 0 24 24" version="1.1" xmlns="http://www.w3.org/2000/svg" xmlns:xlink="http://www.w3.org/1999/xlink">
    <circle fill="#A6A6A6" cx="12" cy="12" r="12"></circle>
    <path fill="#FFFFFF" d="M15.2857143,9.33442889 L18.199699,9.33442889 C18.6418575,9.33442889 19,9.76530242 19,10.2972701 L19,18 L15.2857143,18 L15.2857143,9.33442889 Z M16.2142857,11.0658998 L16.2142857,12.799014 L18.0714286,12.799014 L18.0714286,11.0658998 L16.2142857,11.0658998 Z M16.2142857,14.5325664 L16.2142857,16.2656807 L18.0714286,16.2656807 L18.0714286,14.5325664 L16.2142857,14.5325664 Z M9.71569655,18 L9.7163495,14.5337716 L7.85714286,14.5337716 L7.85714286,18 L6,18 L6,6.0109833 C6,5.4524172 6.44750975,5 7,5 L13.3544081,5 C13.9068983,5 14.3544081,5.4524172 14.3544081,6.0109833 L14.3510431,18 L9.71569655,18 Z M7.85714286,7.60131467 L7.85714286,9.33442889 L9.71428571,9.33442889 L9.71428571,7.60131467 L7.85714286,7.60131467 Z M7.85714286,11.0675431 L7.85714286,12.8006573 L9.71428571,12.8006573 L9.71428571,11.0675431 L7.85714286,11.0675431 Z M10.6428571,7.60131467 L10.6428571,9.33442889 L12.5,9.33442889 L12.5,7.60131467 L10.6428571,7.60131467 Z M10.6428571,11.0675431 L10.6428571,12.8006573 L12.5,12.8006573 L12.5,11.0675431 L10.6428571,11.0675431 Z M10.6428571,14.5337716 L10.6428571,16.2668858 L12.5,16.2668858 L12.5,14.5337716 L10.6428571,14.5337716 Z"></path>
</svg>