<?xml version="1.0" encoding="UTF-8"?>
<svg width="24px" height="24px" viewBox="0 0 24 24" version="1.1" xmlns="http://www.w3.org/2000/svg" xmlns:xlink="http://www.w3.org/1999/xlink">
    <path d="M12,21 C7.02953547,21 3,16.9704645 3,12 C3,7.02953547 7.02953547,3 12,3 C16.9704645,3 21,7.02953547 21,12 C21,16.9704645 16.9704645,21 12,21 L12,21 Z M12,4.63636364 C7.93281139,4.63636364 4.63636364,7.93281139 4.63636364,12 C4.63636364,16.0671886 7.93281139,19.3636364 12,19.3636364 C16.0671886,19.3636364 19.3636364,16.0671886 19.3636364,12 C19.3636364,7.93281139 16.0671886,4.63636364 12,4.63636364 L12,4.63636364 Z M12,17.7272727 C11.548362,17.7272727 11.1818182,17.3607289 11.1818182,16.9090909 C11.1818182,16.4574529 11.548362,16.0909091 12,16.0909091 C12.451638,16.0909091 12.8181818,16.4574529 12.8181818,16.9090909 C12.8181818,17.3607289 12.451638,17.7272727 12,17.7272727 L12,17.7272727 Z M12,14.4545455 C11.548362,14.4545455 11.1818182,10.9011674 11.1818182,9.54545455 L11.1818182,7.09090909 C11.1818182,6.63927109 11.548362,6.27272727 12,6.27272727 C12.451638,6.27272727 12.8181818,6.63927109 12.8181818,7.09090909 L12.8181818,9.54545455 C12.8181818,10.9011674 12.451638,14.4545455 12,14.4545455 L12,14.4545455 Z" id="path-1"></path>
</svg>