<svg xmlns="http://www.w3.org/2000/svg" xmlns:xlink="http://www.w3.org/1999/xlink" width="24" height="24" viewBox="0 0 24 24">
    <path d="M18.792 11.255c-.278.288-.517.533-.743.765a5.433 5.433 0 0 0-1.425-2.903l.047-.047a1.186 1.186 0 0 0 0-1.64 1.103 1.103 0 0 0-1.592 0c-.438.453-3.31 3.412-3.75 3.864a1.186 1.186 0 0 0 0 1.64c.36.37.895.42 1.321.184l-2.582 2.66a4.086 4.086 0 0 1-.86-.66c-1.61-1.659-1.61-4.35 0-6.01 1.611-1.66 2.14-2.203 3.75-3.863a4.04 4.04 0 0 1 5.834 0c1.61 1.66 1.61 4.35 0 6.01zM8.329 15.93a1.186 1.186 0 0 0 0 1.64c.44.452 1.152.452 1.592 0 .438-.453 3.31-3.411 3.75-3.864a1.186 1.186 0 0 0 0-1.64c-.36-.37-.895-.42-1.32-.184l2.581-2.66c.306.18.599.39.86.66 1.61 1.659 1.61 4.35 0 6.01-1.611 1.66-2.14 2.203-3.75 3.863a4.04 4.04 0 0 1-5.834 0c-1.61-1.66-1.61-4.35 0-6.01l.743-.765a5.427 5.427 0 0 0 1.425 2.903l-.047.047z"/>
</svg>
