<svg xmlns="http://www.w3.org/2000/svg" xmlns:xlink="http://www.w3.org/1999/xlink" width="24" height="24" viewBox="0 0 24 24">
    <path d="M15.574 12l5.404-5.668c.01.073.022.147.022.224v10.888c0 .077-.011.15-.022.224L15.574 12zm-3.323 1.835a.345.345 0 0 1-.505 0L3.614 5.306C3.862 5.116 4.167 5 4.5 5h15c.332 0 .636.115.884.305l-8.133 8.53zM8.423 12l-5.401 5.665c-.01-.072-.022-.145-.022-.22V6.554c0-.075.011-.148.022-.22L8.423 12zm.787.825l1.749 1.834c.287.302.663.452 1.04.452.375 0 .752-.15 1.039-.452l1.749-1.834 5.597 5.87c-.248.19-.552.305-.884.305h-15c-.333 0-.638-.116-.886-.306l5.596-5.869z"/>
</svg>
