<?xml version="1.0" encoding="UTF-8"?>
<svg width="16px" height="16px" viewBox="0 0 16 16" version="1.1" xmlns="http://www.w3.org/2000/svg" xmlns:xlink="http://www.w3.org/1999/xlink">
    <g stroke="none" stroke-width="1" fill="none" fill-rule="evenodd">
        <rect x="0" y="0" width="16" height="16"></rect>
        <path transform="translate(1.000000, 0.000000)" fill="#00A82D" fill-rule="nonzero" d="M4.41538462,3.63278689 C4.41538462,3.79016393 4.40192308,4.05245902 4.24038462,4.22295082 C4.06538462,4.38032787 3.79615385,4.39344262 3.63461538,4.39344262 L1.91153846,4.39344262 C1.41346154,4.39344262 1.11730769,4.39344262 0.915384615,4.41967213 C0.807692308,4.43278689 0.673076923,4.4852459 0.605769231,4.51147541 C0.578846154,4.52459016 0.578846154,4.51147541 0.592307692,4.49836066 L4.52307692,0.603278689 C4.53653846,0.590163934 4.55,0.590163934 4.53653846,0.616393443 C4.50961538,0.681967213 4.45576923,0.813114754 4.44230769,0.918032787 C4.41538462,1.1147541 4.41538462,1.40327869 4.41538462,1.88852459 L4.41538462,3.63278689 Z M8.07692308,15.4098361 C7.61923077,15.1213115 7.37692308,14.7409836 7.28269231,14.504918 C7.18846154,14.2819672 7.13461538,14.0327869 7.13461538,13.7836066 C7.13461538,12.695082 8.05,11.8032787 9.18076923,11.8032787 C9.51730769,11.8032787 9.78653846,12.0655738 9.78653846,12.3934426 C9.78653846,12.6163934 9.66538462,12.8 9.47692308,12.904918 C9.40961538,12.9442623 9.31538462,12.9704918 9.24807692,12.9836066 C9.18076923,12.9967213 8.925,13.0229508 8.80384615,13.1278689 C8.66923077,13.2327869 8.56153846,13.4032787 8.56153846,13.5868852 C8.56153846,13.7836066 8.64230769,13.9672131 8.77692308,14.0983607 C9.01923077,14.3344262 9.34230769,14.4655738 9.69230769,14.4655738 C10.6076923,14.4655738 11.3480769,13.7442623 11.3480769,12.852459 C11.3480769,12.052459 10.7961538,11.3442623 10.0692308,11.0295082 C9.96153846,10.9770492 9.78653846,10.9377049 9.625,10.8983607 C9.42307692,10.8590164 9.23461538,10.8327869 9.22115385,10.8327869 C8.65576923,10.7672131 7.24230769,10.3344262 7.14807692,9.1147541 C7.14807692,9.1147541 6.73076923,10.9508197 5.89615385,11.4491803 C5.81538462,11.4885246 5.70769231,11.5278689 5.58653846,11.5540984 C5.46538462,11.5803279 5.33076923,11.5934426 5.29038462,11.5934426 C3.93076923,11.6721311 2.49038462,11.252459 1.49423077,10.2557377 C1.49423077,10.2557377 0.821153846,9.71803279 0.471153846,8.20983607 C0.390384615,7.84262295 0.228846154,7.18688525 0.134615385,6.5704918 C0.0942307692,6.34754098 0.0807692308,6.17704918 0.0673076923,6.01967213 C0.0673076923,5.37704918 0.471153846,4.9442623 0.982692308,4.87868852 C0.996153846,4.87868852 1.03653846,4.87868852 1.06346154,4.87868852 C1.37307692,4.87868852 3.72884615,4.87868852 3.72884615,4.87868852 C4.2,4.87868852 4.46923077,4.76065574 4.64423077,4.60327869 C4.87307692,4.39344262 4.92692308,4.09180328 4.92692308,3.73770492 C4.92692308,3.73770492 4.92692308,1.35081967 4.92692308,1.04918033 C4.92692308,1.03606557 4.92692308,0.983606557 4.92692308,0.970491803 C4.99423077,0.485245902 5.43846154,0.0786885246 6.09807692,0.0786885246 C6.09807692,0.0786885246 6.3,0.0786885246 6.42115385,0.0786885246 C6.55576923,0.0786885246 6.71730769,0.0918032787 6.86538462,0.104918033 C6.97307692,0.118032787 7.06730769,0.144262295 7.22884615,0.183606557 C8.05,0.380327869 8.225,1.19344262 8.225,1.19344262 C8.225,1.19344262 9.77307692,1.4557377 10.5538462,1.58688525 C11.2942308,1.71803279 13.125,1.83606557 13.475,3.63278689 C14.2961538,7.90819672 13.7980769,12.052459 13.7576923,12.052459 C13.1788462,16.0918033 9.73269231,15.895082 9.73269231,15.895082 C8.99230769,15.895082 8.44038462,15.6590164 8.07692308,15.4098361 Z M11.1730769,6.81967213 C10.7288462,6.78032787 10.3519231,6.95081967 10.2173077,7.27868852 C10.1903846,7.3442623 10.1634615,7.42295082 10.1769231,7.46229508 C10.1903846,7.50163934 10.2173077,7.5147541 10.2442308,7.52786885 C10.4057692,7.60655738 10.675,7.64590164 11.0653846,7.6852459 C11.4557692,7.72459016 11.725,7.75081967 11.9,7.72459016 C11.9269231,7.72459016 11.9538462,7.71147541 11.9807692,7.67213115 C12.0076923,7.63278689 11.9942308,7.55409836 11.9942308,7.48852459 C11.9403846,7.12131148 11.6173077,6.87213115 11.1730769,6.81967213 Z"></path>
    </g>
</svg>