<?xml version="1.0" encoding="UTF-8" standalone="no"?>
<svg width="84px" height="50px" viewBox="0 0 84 50" version="1.1" xmlns="http://www.w3.org/2000/svg" xmlns:xlink="http://www.w3.org/1999/xlink">
    <!-- Generator: sketchtool 41.2 (35397) - http://www.bohemiancoding.com/sketch -->
    <title>41459CEA-5F7E-4343-9944-856EB6B611DE</title>
    <desc>Created with sketchtool.</desc>
    <defs></defs>
    <g id="popup" stroke="none" stroke-width="1" fill="none" fill-rule="evenodd">
        <g id="Assets" transform="translate(-178.000000, -48.000000)">
            <g id="EvernoteWebClipper" transform="translate(178.000000, 48.000000)">
                <g id="Group">
                    <path d="M1.21261253,37.0770004 L0.104793675,37.0770004 L0.104793675,38.3045835 L7.44035096,38.3045835 L7.56011516,35.3703606 L6.1528858,35.3703606 L6.0331216,37.0770004 L2.84439976,37.0770004 L2.84439976,33.6038386 L5.86844583,33.6038386 L5.86844583,32.2864324 L2.87434081,32.2864324 L2.87434081,29.052799 L5.94329845,29.052799 L6.0331216,30.5797925 L7.42538043,30.5797925 L7.36549833,27.8252159 L0,27.8252159 L0,29.052799 L1.21261253,29.052799 L1.21261253,37.0770004 Z M12.8254627,27.8252159 L8.90318512,27.8252159 L8.90318512,29.052799 L9.81638715,29.052799 L13.4542247,38.3045835 L15.3105698,38.3045835 L18.9034959,29.052799 L19.8466389,29.052799 L19.8466389,27.8252159 L16.0141845,27.8252159 L16.0141845,29.052799 L17.2267971,29.052799 L14.7716309,35.9841521 C14.6668373,36.2685921 14.6069552,36.5979436 14.5321025,36.8973541 L14.5021615,36.8973541 C14.4273089,36.5979436 14.3674268,36.2685921 14.2626331,35.9841521 L11.7625554,29.052799 L12.8254627,29.052799 L12.8254627,27.8252159 Z M22.2526162,37.0770004 L21.1447973,37.0770004 L21.1447973,38.3045835 L28.4803546,38.3045835 L28.6001188,35.3703606 L27.1928895,35.3703606 L27.0731253,37.0770004 L23.8844034,37.0770004 L23.8844034,33.6038386 L26.9084495,33.6038386 L26.9084495,32.2864324 L23.9143445,32.2864324 L23.9143445,29.052799 L26.9833021,29.052799 L27.0731253,30.5797925 L28.4653841,30.5797925 L28.405502,27.8252159 L21.0400037,27.8252159 L21.0400037,29.052799 L22.2526162,29.052799 L22.2526162,37.0770004 Z M31.545035,37.0770004 L30.4521866,37.0770004 L30.4521866,38.3045835 L34.3894347,38.3045835 L34.3894347,37.0770004 L33.1768222,37.0770004 L33.1768222,33.843367 L34.1049947,33.843367 C34.5990221,33.843367 34.8235799,34.0080428 35.2577252,34.756569 L36.6948956,37.1967646 C37.3086871,38.2147603 37.7128913,38.3045835 38.5961523,38.3045835 L39.5692364,38.3045835 L39.5692364,37.0770004 L39.1800027,37.0770004 C38.8356807,37.0770004 38.5512407,36.9422657 38.2518302,36.4482384 L37.1140703,34.5320112 C36.7547777,33.9331901 36.365544,33.4391628 35.7816936,33.3942512 L35.7816936,33.3643102 C37.1140703,33.2295755 38.2817712,32.4061966 38.2817712,30.5947631 C38.2817712,29.0677695 37.2637755,27.8252159 35.1080199,27.8252159 L30.4521866,27.8252159 L30.4521866,29.052799 L31.545035,29.052799 L31.545035,37.0770004 Z M33.2067632,32.5259608 L33.2067632,29.052799 L34.6289631,29.052799 C35.8415757,29.052799 36.5152493,29.681561 36.5152493,30.7744094 C36.5152493,31.8971987 35.6918704,32.5259608 34.5091989,32.5259608 L33.2067632,32.5259608 Z M43.2327377,30.4582602 C43.3884837,30.7523751 43.6558483,31.1433097 43.9363524,31.5079651 L49.1760362,38.3045835 L50.538354,38.3045835 L50.538354,29.052799 L51.6162318,29.052799 L51.6162318,27.8252159 L47.9634237,27.8252159 L47.9634237,29.052799 L49.1311246,29.052799 L49.1311246,35.6809596 C48.8458715,35.2184849 48.4166901,34.5624963 48.1131289,34.157748 L43.2626788,27.8252159 L40.5081022,27.8252159 L40.5081022,29.052799 L41.8255084,29.052799 L41.8255084,37.0770004 L40.7476306,37.0770004 L40.7476306,38.3045835 L44.3854682,38.3045835 L44.3854682,37.0770004 L43.2327377,37.0770004 L43.2327377,30.4582602 L43.2327377,30.4582602 Z M53.1688891,33.244546 C53.1688891,36.4632089 55.1000868,38.4842298 58.1540739,38.4842298 C61.6871179,38.4842298 63.3039346,35.6548005 63.3039346,32.8852534 C63.3039346,29.65162 61.4775305,27.6455696 58.4534844,27.6455696 C55.219851,27.6455696 53.1688891,29.966001 53.1688891,33.244546 Z M55.0252342,33.1696934 C55.0252342,30.250441 56.5971393,29.052799 58.3486908,29.052799 C60.8188274,29.052799 61.4475895,31.1037609 61.4475895,32.9750765 C61.4475895,34.3972764 60.9835032,37.0770004 58.213956,37.0770004 C56.0132889,37.0770004 55.0252342,35.2056848 55.0252342,33.1696934 Z M68.3147832,37.0770004 L67.1770233,37.0770004 L67.1770233,38.3045835 L71.1442124,38.3045835 L71.1442124,37.0770004 L69.9315999,37.0770004 L69.9315999,29.052799 L72.386766,29.052799 L72.4466481,30.5797925 L73.9437006,30.5797925 L73.8838185,27.8252159 L64.3775351,27.8252159 L64.317653,30.5797925 L65.8147055,30.5797925 L65.8745876,29.052799 L68.3147832,29.052799 L68.3147832,37.0770004 Z M76.5892062,37.0770004 L75.4813874,37.0770004 L75.4813874,38.3045835 L82.8169447,38.3045835 L82.9367089,35.3703606 L81.5294795,35.3703606 L81.4097153,37.0770004 L78.2209935,37.0770004 L78.2209935,33.6038386 L81.2450395,33.6038386 L81.2450395,32.2864324 L78.2509345,32.2864324 L78.2509345,29.052799 L81.3198922,29.052799 L81.4097153,30.5797925 L82.8019741,30.5797925 L82.742092,27.8252159 L75.3765937,27.8252159 L75.3765937,29.052799 L76.5892062,29.052799 L76.5892062,37.0770004 Z" id="EVERNOTE" fill="#00A82D"></path>
                    <path d="M3.07825722,41.6093433 L0,41.6093433 L0,42.5727673 L0.728442548,42.5727673 L3.41898035,49.8336947 L4.87586545,49.8336947 L6.52073572,45.4747884 L6.54423386,45.4747884 L7.95412267,49.8336947 L9.41100776,49.8336947 L12.1485419,42.5727673 L12.8652353,42.5727673 L12.8652353,41.6093433 L9.92796699,41.6093433 L9.92796699,42.5727673 L10.8326456,42.5727673 L9.04678649,47.7658578 C8.94104483,48.0830827 8.87055039,48.4120568 8.7765578,48.7292818 L8.75305965,48.7292818 C8.68256521,48.4120568 8.62381985,48.0713337 8.52982726,47.7658578 L6.92020421,42.5727673 L7.74263935,42.5727673 L7.74263935,41.6093433 L4.73487656,41.6093433 L4.73487656,42.5727673 L5.53381355,42.5727673 L5.98027834,43.9004126 L4.52339324,47.8715994 C4.41765158,48.1418281 4.37065529,48.447304 4.28841178,48.7292818 L4.26491363,48.7292818 C4.18267012,48.447304 4.12392475,48.1535772 4.02993216,47.8715994 L2.25582209,42.5727673 L3.07825722,42.5727673 L3.07825722,41.6093433 Z M14.8586614,48.8702706 L13.98923,48.8702706 L13.98923,49.8336947 L19.7462759,49.8336947 L19.8402685,47.5308763 L18.7358556,47.5308763 L18.641863,48.8702706 L16.1393104,48.8702706 L16.1393104,46.1444856 L18.5126232,46.1444856 L18.5126232,45.1105672 L16.1628086,45.1105672 L16.1628086,42.5727673 L18.5713686,42.5727673 L18.641863,43.7711728 L19.7345269,43.7711728 L19.6875306,41.6093433 L13.9069865,41.6093433 L13.9069865,42.5727673 L14.8586614,42.5727673 L14.8586614,48.8702706 Z M22.2331631,48.8702706 L21.3637317,48.8702706 L21.3637317,49.8336947 L24.8062102,49.8336947 C26.7918036,49.8336947 27.7787257,48.929016 27.7787257,47.5308763 C27.7787257,46.2737254 26.7565564,45.5217847 25.6521435,45.5335338 L25.6521435,45.5100357 C26.697811,45.4277922 27.2852647,44.5818589 27.2852647,43.6301839 C27.2852647,42.9369886 26.9327925,42.361284 26.545073,42.0793062 C26.0398629,41.7033359 25.4994055,41.6093433 24.6417232,41.6093433 L21.3637317,41.6093433 L21.3637317,42.5727673 L22.2331631,42.5727673 L22.2331631,48.8702706 Z M23.5373103,45.1105672 L23.5373103,42.5727673 L24.4184908,42.5727673 C24.8649555,42.5727673 25.1116861,42.5962655 25.3466676,42.7255053 C25.6756416,42.9134905 25.898874,43.2307154 25.898874,43.794671 C25.898874,44.6406042 25.3231694,45.1105672 24.4302398,45.1105672 L23.5373103,45.1105672 Z M23.5138121,48.8702706 L23.5138121,46.1444856 L24.6652213,46.1444856 C25.5229037,46.1444856 26.3218406,46.5674523 26.3218406,47.48388 C26.3218406,48.4708022 25.5464018,48.8702706 24.5947269,48.8702706 L23.5138121,48.8702706 Z M39.0852506,44.0179033 L40.260158,44.0179033 L40.260158,41.9148192 C39.7079515,41.6915868 38.7327784,41.4683544 37.69886,41.4683544 C34.9613259,41.4683544 33.2459612,43.2424645 33.2459612,45.8037625 C33.2459612,48.1418281 34.6441009,49.9746835 37.5931183,49.9746835 C38.5682914,49.9746835 39.625708,49.7632002 40.1544163,49.5869641 L40.2014126,47.3428911 L39.0265053,47.3428911 L38.979509,48.8232744 C38.6740331,48.8820197 38.0748303,48.9407651 37.5108748,48.9407651 C35.8307573,48.9407651 34.7028463,47.6248689 34.7028463,45.7567662 C34.7028463,43.7006784 35.7250157,42.5022729 37.6871109,42.5022729 C38.3098118,42.5022729 38.7797747,42.6197636 39.0852506,42.7020071 L39.0852506,44.0179033 Z M42.6413035,48.8702706 L41.760123,48.8702706 L41.760123,49.8336947 L47.4584236,49.8336947 L47.5759143,47.48388 L46.4715014,47.48388 L46.3540107,48.8702706 L43.9102034,48.8702706 L43.9102034,42.5727673 L44.7913839,42.5727673 L44.7913839,41.6093433 L41.760123,41.6093433 L41.760123,42.5727673 L42.6413035,42.5727673 L42.6413035,48.8702706 Z M50.1920413,48.8702706 L49.3108608,48.8702706 L49.3108608,49.8336947 L52.3421217,49.8336947 L52.3421217,48.8702706 L51.4609412,48.8702706 L51.4609412,42.5727673 L52.3421217,42.5727673 L52.3421217,41.6093433 L49.3108608,41.6093433 L49.3108608,42.5727673 L50.1920413,42.5727673 L50.1920413,48.8702706 Z M54.7232672,48.8702706 L53.8420867,48.8702706 L53.8420867,49.8336947 L56.9908384,49.8336947 L56.9908384,48.8702706 L55.9804181,48.8702706 L56.0039162,46.5674523 L57.2140708,46.5674523 C57.9072661,46.5674523 58.3067346,46.4734597 58.8119447,46.1797328 C59.493391,45.7802644 59.9633539,44.9108329 59.9633539,43.9944052 C59.9633539,43.1014756 59.5521364,42.361284 58.9059373,41.9735646 C58.4829707,41.715085 58.048255,41.6093433 56.9438421,41.6093433 L53.8420867,41.6093433 L53.8420867,42.5727673 L54.7232672,42.5727673 L54.7232672,48.8702706 Z M56.0039162,45.6040283 L56.0039162,42.5727673 L56.7558569,42.5727673 C57.3668087,42.5727673 57.7780263,42.6315127 58.1187494,42.9252395 C58.377229,43.160221 58.5769633,43.5596895 58.5769633,44.0414015 C58.5769633,44.9460801 58.1187494,45.6040283 56.932093,45.6040283 L56.0039162,45.6040283 Z M62.1800124,48.8702706 L61.2988319,48.8702706 L61.2988319,49.8336947 L64.4475836,49.8336947 L64.4475836,48.8702706 L63.4371633,48.8702706 L63.4606614,46.5674523 L64.670816,46.5674523 C65.3640113,46.5674523 65.7634798,46.4734597 66.2686899,46.1797328 C66.9501362,45.7802644 67.4200991,44.9108329 67.4200991,43.9944052 C67.4200991,43.1014756 67.0088816,42.361284 66.3626825,41.9735646 C65.9397159,41.715085 65.5050002,41.6093433 64.4005873,41.6093433 L61.2988319,41.6093433 L61.2988319,42.5727673 L62.1800124,42.5727673 L62.1800124,48.8702706 Z M63.4606614,45.6040283 L63.4606614,42.5727673 L64.2126021,42.5727673 C64.8235539,42.5727673 65.2347715,42.6315127 65.5754946,42.9252395 C65.8339742,43.160221 66.0337085,43.5596895 66.0337085,44.0414015 C66.0337085,44.9460801 65.5754946,45.6040283 64.3888382,45.6040283 L63.4606614,45.6040283 Z M69.7072521,48.8702706 L68.8378206,48.8702706 L68.8378206,49.8336947 L74.5948666,49.8336947 L74.6888592,47.5308763 L73.5844463,47.5308763 L73.4904537,48.8702706 L70.9879011,48.8702706 L70.9879011,46.1444856 L73.3612139,46.1444856 L73.3612139,45.1105672 L71.0113992,45.1105672 L71.0113992,42.5727673 L73.4199592,42.5727673 L73.4904537,43.7711728 L74.5831175,43.7711728 L74.5361212,41.6093433 L68.7555771,41.6093433 L68.7555771,42.5727673 L69.7072521,42.5727673 L69.7072521,48.8702706 Z M77.0700047,48.8702706 L76.2123223,48.8702706 L76.2123223,49.8336947 L79.3023286,49.8336947 L79.3023286,48.8702706 L78.3506537,48.8702706 L78.3506537,46.3324708 L79.0790962,46.3324708 C79.4668156,46.3324708 79.6430517,46.4617106 79.9837749,47.0491643 L81.1116859,48.9642632 C81.5933979,49.7632002 81.9106229,49.8336947 82.6038182,49.8336947 L83.367508,49.8336947 L83.367508,48.8702706 L83.0620321,48.8702706 C82.7918034,48.8702706 82.568571,48.764529 82.3335895,48.3768096 L81.44066,46.8729282 C81.1586822,46.4029652 80.8532063,46.0152458 80.3949924,45.9799986 L80.3949924,45.9565005 C81.44066,45.8507588 82.3570877,45.2045598 82.3570877,43.7829219 C82.3570877,42.5845164 81.5581507,41.6093433 79.8662841,41.6093433 L76.2123223,41.6093433 L76.2123223,42.5727673 L77.0700047,42.5727673 L77.0700047,48.8702706 Z M78.3741518,45.2985523 L78.3741518,42.5727673 L79.4903138,42.5727673 C80.4419887,42.5727673 80.970697,43.0662284 80.970697,43.9239108 C80.970697,44.8050913 80.324498,45.2985523 79.3963212,45.2985523 L78.3741518,45.2985523 Z" id="WEB-CLIPPER" fill="#7C868A"></path>
                    <path d="M33.3362879,14.3073377 C33.571524,14.7796877 33.728348,14.9896211 34.1988202,15.2257961 C35.2443138,15.6719045 37.5966744,16.1442545 38.7205801,16.3017046 C39.8183484,16.4329129 40.5240566,16.7478129 40.942254,15.8555962 L41.1252154,15.3307628 C41.4911382,14.2286127 41.5434129,13.2576709 41.5434129,12.5753875 C41.5434129,12.4966625 41.6479622,12.4966625 41.6479622,12.5753875 C41.6479622,13.0477375 41.5434129,14.8059294 42.8764172,15.2782795 C43.3991641,15.4619711 44.470795,15.6456628 45.5685633,15.7768712 C46.5617823,15.8818378 47.2936278,16.2754629 47.2936278,18.8471465 C47.2936278,20.395405 46.9538424,20.6053384 45.2549152,20.6053384 C43.8696362,20.6053384 43.3468894,20.6578217 43.3468894,19.5556716 C43.3468894,18.6634548 44.235559,18.7421798 44.8628551,18.7421798 C45.1765032,18.7421798 44.9674045,18.5322465 44.9674045,17.9811714 C44.9674045,17.4300963 45.3071899,17.1151963 44.9674045,17.1151963 C42.7195932,17.0364713 41.4127262,17.1151963 41.4127262,19.9230549 C41.4127262,22.4947386 42.3798078,22.9670886 45.5685633,22.9670886 C48.077748,22.9670886 48.9664176,22.8883636 49.9857739,19.6606383 C50.1948726,19.0308382 50.6914821,17.0889546 50.9789928,13.8349876 C51.1880916,11.7881374 50.7960314,5.56886174 50.5085207,3.99436158 C50.3516967,3.07590314 49.8028125,2.62979476 49.306203,2.44610308 C48.7834562,2.26241139 47.7118253,2.05247803 46.3526835,1.89502802 C45.2810526,1.76381967 44.0003229,1.79006134 43.24234,1.81630301 C43.1377906,1.18650294 42.6934559,0.582944543 42.1968464,0.399252857 C40.863842,-0.151822202 38.8251294,-0.0206138546 38.3023826,0.136836162 C37.8841852,0.24180284 37.413713,0.477977865 37.1523396,0.871602908 C36.9955156,1.10777793 36.8909662,1.42267797 36.8909662,1.86878635 L36.8909662,3.23335316 C36.8909662,3.75818655 36.9171036,4.2305366 36.9171036,4.2305366 C36.9171036,4.70288665 36.5250435,5.07027002 36.0545713,5.07027002 L33.9113094,5.07027002 C33.4669746,5.07027002 33.1010518,5.14899503 32.8396784,5.28020338 C32.578305,5.41141173 32.3692063,5.56886174 32.2385196,5.75255343 C31.9510089,6.14617847 31.8987342,6.61852852 31.8987342,7.11712024 C31.8987342,7.11712024 31.8987342,7.51074529 32.0032835,8.2717537 C32.0816956,8.8753121 32.7351291,13.0214959 33.3362879,14.3073377 Z M35.950022,4.44046996 C36.0807087,4.44046996 36.185258,4.36174495 36.185258,4.2305366 L36.1591207,1.86878635 C36.1591207,1.44891964 36.2375327,1.08153626 36.3943568,0.76663623 L36.4727688,0.635427882 L32.2646569,4.78161166 L32.2646569,4.80785333 C32.343069,4.78161166 32.4737557,4.70288665 32.4737557,4.70288665 C32.8396784,4.54543663 33.2840132,4.44046996 33.80676,4.44046996 L35.950022,4.44046996 Z M46.5356449,9.53135384 C47.5550012,9.58383717 47.6856879,10.5547789 47.6856879,11.2108207 C47.2674905,11.0008873 46.7447437,10.8959206 46.1435848,10.869679 C45.8560741,10.8434373 45.542426,10.869679 45.2810526,10.9221623 C45.3594646,10.2923623 45.620838,9.50511217 46.5356449,9.53135384 Z" id="E-Copy" fill="#7C868A"></path>
                </g>
            </g>
        </g>
    </g>
</svg>