<svg class="skitchVisible" version="1.1" xmlns="http://www.w3.org/2000/svg" xmlns:xlink="http://www.w3.org/1999/xlink" x="0px" y="0px" width="16px" height="16px" viewBox="0 0 14 14" enable-background="new 0 0 14 14" xml:space="preserve"><polygon class="skitchVisible" fill="#FFFFFF" points="5,0 0,0 0,5 2,3 4,5 5,4 3,2 "></polygon><polygon class="skitchVisible" fill="#FFFFFF" points="14,0 9,0 11,2 9,4 10,5 12,3 14,5 "></polygon><polygon class="skitchVisible" fill="#FFFFFF" points="5,10 4,9 2,11 0,9 0,14 5,14 3,12 "></polygon><polygon class="skitchVisible" fill="#FFFFFF" points="12,11 10,9 9,10 11,12 9,14 14,14 14,9 "></polygon></svg>