<svg width="126" height="67" viewBox="0 0 126 67" fill="none" xmlns="http://www.w3.org/2000/svg">
    <path id="elephant" fill="#00a82d" d="M9.83948 8.25317C9.83948 8.61863 9.80912 9.22772 9.44469 9.62362C9.0499 9.98909 8.44252 10.0195 8.0781 10.0195H4.1909C3.06726 10.0195 2.39913 10.0195 1.9436 10.0805C1.70066 10.1109 1.39698 10.2327 1.24513 10.2936C1.1844 10.3241 1.18438 10.2936 1.21475 10.2632L10.0824 1.21818C10.1128 1.18772 10.1432 1.18773 10.1128 1.24864C10.0521 1.40091 9.93059 1.70545 9.90022 1.94908C9.83949 2.4059 9.83948 3.0759 9.83948 4.20272V8.25317ZM18.0694 35.6013C17.0368 34.9313 16.4903 34.0482 16.2777 33.4999C16.065 32.9823 15.9436 32.4036 15.9436 31.825C15.9436 29.2972 18.0087 27.2264 20.5597 27.2264C21.3189 27.2264 21.9262 27.8354 21.9262 28.5968C21.9262 29.1145 21.6529 29.5409 21.2278 29.7845C21.0759 29.8759 20.8633 29.9367 20.7115 29.9673C20.5597 29.9977 19.9827 30.0586 19.7093 30.3022C19.4056 30.5458 19.1626 30.9418 19.1626 31.3681C19.1626 31.825 19.3449 32.2513 19.6486 32.5559C20.1952 33.104 20.9241 33.4085 21.7137 33.4085C23.7787 33.4085 25.4491 31.7336 25.4491 29.6627C25.4491 27.8049 24.2039 26.1605 22.564 25.4295C22.321 25.3077 21.9262 25.2163 21.5618 25.125C21.1063 25.0336 20.6811 24.9727 20.6508 24.9727C19.3753 24.8204 16.1866 23.8154 15.9739 20.9831C15.9739 20.9831 15.0326 25.2467 13.1497 26.404C12.9674 26.4954 12.7245 26.5867 12.4512 26.6477C12.1779 26.7086 11.8742 26.739 11.7831 26.739C8.71585 26.9218 5.46639 25.9472 3.21909 23.6327C3.21909 23.6327 1.70065 22.3841 0.911063 18.8818C0.72885 18.0291 0.364425 16.5063 0.151843 15.0749C0.0607375 14.5572 0.0303688 14.1613 0 13.7959C0 12.3036 0.911077 11.2987 2.06509 11.1464C2.09546 11.1464 2.18655 11.1464 2.2473 11.1464C2.94578 11.1464 8.26031 11.1464 8.26031 11.1464C9.32321 11.1464 9.93058 10.8723 10.3254 10.5068C10.8416 10.0195 10.9632 9.31907 10.9632 8.4968C10.9632 8.4968 10.9632 2.95409 10.9632 2.25363C10.9632 2.22317 10.9632 2.10135 10.9632 2.0709C11.115 0.944086 12.1171 0 13.6052 0C13.6052 0 14.0608 0 14.334 0C14.6378 0 15.0021 0.0304489 15.3362 0.0609034C15.5791 0.0913579 15.7918 0.152269 16.1561 0.243632C18.0087 0.700449 18.4035 2.58863 18.4035 2.58863C18.4035 2.58863 21.8959 3.19772 23.6573 3.50227C25.3275 3.80681 29.4577 4.0809 30.2473 8.25317C32.0997 18.1813 30.9761 27.8049 30.885 27.8049C29.5791 37.1849 21.8048 36.7281 21.8048 36.7281C20.1649 36.7585 18.9197 36.18 18.0694 35.6013ZM25.0542 15.6536C24.052 15.5623 23.2017 15.9581 22.898 16.7195C22.8374 16.8718 22.7766 17.0545 22.8069 17.1459C22.8374 17.2373 22.898 17.2677 22.9588 17.2981C23.3233 17.4808 23.9306 17.5723 24.8113 17.6637C25.692 17.755 26.2993 17.8158 26.6941 17.755C26.7549 17.755 26.8156 17.7245 26.8763 17.6331C26.9371 17.5418 26.9068 17.359 26.9068 17.2067C26.8156 16.3845 26.0564 15.7754 25.0542 15.6536Z" transform="translate(44.6421)"/>
    <g id="title" fill="black" >
        <path d="M0 20.0086L1.03254 19.7955C1.9436 19.5518 2.18654 19.43 2.18654 17.6027V3.25863C2.18654 1.43137 1.91323 1.27909 1.03254 1.0659L0 0.852731V0H16.4598L16.7636 6.06045H15.8221C15.0629 4.38545 14.577 3.50228 14.1214 2.83227C13.1497 1.43137 12.512 1.30955 10.4165 1.30955C8.86767 1.30955 8.10845 1.49228 7.65292 1.61409V9.37999H8.47288C10.5987 9.37999 11.0846 9.13635 11.4491 8.46635C11.8742 7.70499 12.1171 7.12635 12.3904 6.15181H13.3015V14.009H12.3904C12.1171 13.065 11.8742 12.4559 11.4491 11.5727C11.0846 10.8113 10.6898 10.659 8.47288 10.659H7.65292V16.5063C7.65292 19.2168 7.74403 19.5214 10.6898 19.5214C13.1193 19.5214 13.6052 19.2168 14.6073 17.7245C15.154 16.9023 15.731 15.6232 16.5206 13.7045H17.4924L17.0673 20.8614H0.0303706L0 20.0086Z" transform="translate(0 45.7427)"/>
        <path d="M2.36876 3.34999C1.67028 1.64454 1.33622 1.21819 0.577005 0.974547L0 0.791819V0H9.01951V0.791819L8.19956 1.005C7.56182 1.18772 7.25813 1.49227 7.25813 2.22317C7.25813 2.64953 7.40997 3.16727 7.65292 3.83727L10.1735 10.7809H10.3254L12.7549 3.83727C13.0282 3.10636 13.1496 2.58863 13.1496 2.16227C13.1496 1.49228 12.846 1.15727 12.2082 1.005L11.3883 0.791819V0H16.9458V0.791819L16.3688 0.974547C15.5791 1.24864 15.2451 1.70546 14.5162 3.68499L9.86984 15.6232H7.31886L2.36876 3.34999Z" transform="translate(17.6445 50.9809)"/>
        <path d="M0 8.13135C0 2.89317 3.85682 0 7.83513 0C11.9653 0 14.5467 2.0709 14.6378 7.52226H4.73752C4.82862 12.4559 6.68113 13.7959 9.77874 13.7959C11.6312 13.7959 13.0585 13.2477 14.1822 12.669V13.674C13.1193 14.8314 10.8416 16.4149 7.83513 16.4149C2.61171 16.3541 0 13.2477 0 8.13135ZM4.73752 6.36499L9.86984 6.0909C9.86984 2.46682 9.38395 1.12681 7.59219 1.12681C6.07375 1.12681 4.85899 2.58863 4.73752 6.36499Z" transform="translate(33.8917 50.5851)"/>
        <path d="M6.68113 2.40591C7.53145 1.49227 9.26246 0 11.2668 0C12.5423 0 13.6052 1.03546 13.6052 2.345C13.6052 3.65454 12.5726 4.68999 11.2668 4.68999C10.3254 4.68999 9.47504 4.11136 9.14099 3.2891C8.95878 2.95409 8.56399 2.86272 8.29067 2.86272C7.74403 2.86272 7.10628 3.25863 6.71149 3.62408V13.3695C6.71149 14.7704 6.83297 14.9227 7.74403 15.0749L8.7462 15.2882V16.1104H0.0911026V15.2882L0.880701 15.0749C1.88287 14.8009 2.00433 14.6487 2.00433 13.3695V4.02C2.00433 2.74091 1.85249 2.64954 1.00217 2.07091L0 1.40091V0.791819L6.31669 0.0609127L6.65077 0.304545L6.59002 2.37545L6.68113 2.40591Z" transform="translate(49.7744 50.4935)"/>
        <path d="M0.0911026 15.2272L0.880683 15.0141C1.88285 14.74 2.00433 14.5877 2.00433 13.3086V3.95908C2.00433 2.68 1.85249 2.58863 1.00217 2.01L0 1.33999V0.730906L6.3167 0L6.65075 0.213176L6.59001 2.13182H6.71149C8.29067 1.005 10.2646 0 12.4512 0C15.0021 0 16.3688 1.30954 16.3688 4.01999V13.2782C16.3688 14.5877 16.4903 14.74 17.462 14.9836L18.2516 15.1968V16.0191H9.9002V15.1968L10.6291 15.0141C11.5402 14.7704 11.6312 14.6791 11.6312 13.2782V5.20772C11.6312 3.38045 10.9632 2.80181 9.56616 2.80181C8.50325 2.80181 7.44035 3.04545 6.77222 3.19772V13.3086C6.77222 14.74 6.86333 14.8009 7.77439 15.0445L8.50325 15.2272V16.0495H0.151844V15.2272H0.0911026Z" transform="translate(64.1694 50.5545)"/>
        <path d="M0 8.22271C0 2.46682 4.06939 0 8.10844 0C12.4512 0 16.2473 2.61909 16.2473 8.07044C16.2473 13.8263 12.2386 16.3541 8.10844 16.3541C3.76571 16.3541 0 13.735 0 8.22271ZM11.2364 8.37498C11.2364 2.31454 10.0824 1.15727 8.01734 1.15727C6.13447 1.15727 5.01084 2.52772 5.01084 7.70499C5.01084 13.8568 6.01302 15.1968 8.19956 15.1968C9.99135 15.1968 11.2364 14.1309 11.2364 8.37498Z" transform="translate(82.998 50.5851)"/>
        <path d="M1.88287 15.8363V5.78636H0V5.05545C2.33839 4.14181 4.13016 2.40591 4.98048 0H6.68113V4.02H10.6594L10.2646 5.78636H6.68113V15.5317C6.68113 17.024 7.13666 17.6331 8.62473 17.6331C9.35359 17.6331 10.2343 17.4809 10.7809 17.359V18.2118C10.052 18.8818 8.564 19.9782 6.04339 19.9782C3.34057 19.9782 1.88287 18.7904 1.88287 15.8363Z" transform="translate(99.9744 46.9609)"/>
        <path d="M0 8.13135C0 2.89317 3.85682 0 7.83513 0C11.9653 0 14.5467 2.0709 14.6378 7.52226H4.73754C4.82864 12.4559 6.68113 13.7959 9.77874 13.7959C11.6312 13.7959 13.0585 13.2477 14.1822 12.669V13.674C13.1193 14.8314 10.8416 16.4149 7.83513 16.4149C2.58134 16.3541 0 13.2477 0 8.13135ZM4.70716 6.36499L9.83948 6.0909C9.83948 2.46682 9.35359 1.12681 7.56183 1.12681C6.04339 1.12681 4.82863 2.58863 4.70716 6.36499Z" transform="translate(111.362 50.5851)"/>
    </g>
</svg>
