<svg xmlns="http://www.w3.org/2000/svg" width="19" height="19" viewBox="0 0 19 19">
    <path fill="white" fill-rule="evenodd" d="M11.617 9.233c.264-.053.584-.079.876-.053.609.027 1.14.133 1.567.347 0-.664-.134-1.646-1.17-1.7-.93-.026-1.193.77-1.273 1.406zm-8.3-5.046c-.57.036-.668.177-.94.293 0 0-.098.06-.155.078V4.54l3.127-3.07-.06.098c-.116.233-.223.405-.223.715l.019 1.749c0 .097-.077.155-.175.155H3.317zm-1.24 2.935C2 6.56 2 6.268 2 6.268c0-.37.027-.715.252-1.01.186-.18.295-.22.497-.3.207-.084.467-.056.796-.056h1.592c.35 0 .692-.372.692-.72 0 0-.02-.35-.02-.739v-1.01c0-.33.029-.564.144-.738.195-.29.494-.517.806-.594.388-.117 1.903-.214 2.893.194.37.136.7.583.778 1.05.563-.02 1.515-.04 2.31.057 1.01.116 1.807.272 2.196.408.368.136.776.466.893 1.146.214 1.166.505 5.77.35 7.285-.214 2.409-.582 3.845-.74 4.312C14.684 17.942 14.024 18 12.159 18c-2.37 0-3.088-.35-3.088-2.254 0-2.078.97-2.136 2.64-2.078.254 0 0 .234 0 .642 0 .406.157.563-.077.563-.466 0-1.126-.06-1.126.602 0 .816.388.777 1.417.777 1.264 0 1.516-.156 1.516-1.302 0-1.903-.545-2.194-1.282-2.272-.816-.098-1.613-.234-2-.37-.992-.348-.913-1.65-.913-2 0-.059-.08-.059-.08 0 0 .505-.037 1.223-.31 2.04l-.135.387c-.311.662-.835.429-1.651.332-.835-.117-2.583-.467-3.361-.797-.35-.175-.465-.33-.64-.68-.446-.953-.932-4.02-.99-4.468z"/>
</svg>
