<svg width="141" height="48" viewBox="0 0 141 48" fill="none" xmlns="http://www.w3.org/2000/svg">
<g clip-path="url(#clip0)">
<path d="M39.7838 29.4573L40.5139 29.3069C41.1599 29.1351 41.3322 29.0493 41.3322 27.763V17.6532C41.3322 16.3648 41.1384 16.2574 40.5139 16.1092L39.7838 15.9589V15.3577H51.4496L51.6649 19.6288H50.9973C50.6616 18.8369 50.2581 18.0754 49.7913 17.3526C49.1022 16.3648 48.65 16.2789 47.1662 16.2789C46.506 16.258 45.8463 16.3303 45.2064 16.4936V21.9673H45.7879C47.2954 21.9673 47.6399 21.7955 47.8984 21.323C48.1915 20.8115 48.4153 20.2634 48.5638 19.6932H49.2099V25.2291H48.5638C48.3971 24.6367 48.1743 24.0615 47.8984 23.5112C47.6399 22.9744 47.36 22.867 45.7879 22.867H45.2064V26.9878C45.2064 28.8968 45.271 29.1115 47.36 29.1115C49.0828 29.1115 49.4252 28.8968 50.1359 27.8467C50.5235 27.2669 50.9327 26.3651 51.4926 25.0122H52.1818L51.8803 30.0628H39.8053L39.7838 29.4615V29.4573Z" fill="black"/>
<path d="M53.9874 21.409C53.4921 20.2065 53.2552 19.9059 52.7168 19.7362L52.3098 19.6074V19.0491H58.7015V19.6074L58.1201 19.7577C57.6678 19.8865 57.4525 20.1013 57.4525 20.6166C57.4828 21.0087 57.5773 21.3932 57.7324 21.7547L59.5199 26.6486H59.6276L61.3504 21.7547C61.5124 21.3804 61.6071 20.9807 61.6304 20.5737C61.6304 20.1034 61.415 19.8672 60.9628 19.7598L60.3813 19.6095V19.0512H64.3202V19.6095L63.9131 19.7384C63.3532 19.9316 63.1163 20.2516 62.5995 21.6474L59.3088 30.0629H57.4999L53.9874 21.409Z" fill="black"/>
<path d="M63.8311 24.4994C63.8311 20.8081 66.564 18.7703 69.383 18.7703C72.3096 18.7703 74.1402 20.2283 74.2048 24.0721H67.182C67.2466 27.5487 68.5582 28.4914 70.7548 28.4914C71.8441 28.4863 72.9155 28.2149 73.8753 27.7011V28.4076C73.2931 29.0133 72.5949 29.4964 71.8222 29.8284C71.0495 30.1603 70.2179 30.3344 69.3765 30.3403C65.6746 30.2952 63.8311 28.1048 63.8311 24.4994ZM67.1885 23.2561L70.8258 23.0628C70.8258 20.5075 70.4813 19.5648 69.2107 19.5648C68.1382 19.5648 67.2768 20.5934 67.182 23.2561H67.1885Z" fill="black"/>
<path d="M79.8188 20.3998C80.4196 19.7556 81.6472 18.7056 83.0685 18.7056C83.4977 18.721 83.9041 18.9018 84.2022 19.21C84.5004 19.5182 84.667 19.9298 84.667 20.358C84.667 20.7862 84.5004 21.1977 84.2022 21.5059C83.9041 21.8141 83.4977 21.9949 83.0685 22.0104C82.7478 22.0111 82.434 21.9178 82.166 21.7422C81.898 21.5666 81.6876 21.3164 81.561 21.0226C81.496 20.9239 81.406 20.8442 81.3001 20.7914C81.1942 20.7386 81.0762 20.7146 80.958 20.7219C80.5704 20.7219 80.1203 21.0011 79.8403 21.2588V28.1303C79.8403 29.1181 79.9265 29.2255 80.5704 29.3329L81.281 29.4832V30.063H75.1477V29.4832L75.7077 29.3329C76.4162 29.1396 76.5023 29.0322 76.5023 28.1303V21.5379C76.5023 20.636 76.3946 20.5716 75.7938 20.1636L75.0831 19.6934V19.2639L79.5539 18.7485L79.7908 18.9203L79.7477 20.3784H79.8123" fill="black"/>
<path d="M85.3684 29.4792L85.9284 29.3289C86.639 29.1356 86.7252 29.0283 86.7252 28.1264V21.5383C86.7252 20.6364 86.6175 20.572 86.0145 20.164L85.3038 19.6937V19.2642L89.7811 18.7489L90.018 18.8992L89.9749 20.2499H90.061C91.1809 19.4575 92.5785 18.7467 94.1291 18.7467C95.9381 18.7467 96.905 19.6701 96.905 21.5791V28.1028C96.905 29.0261 96.9912 29.1335 97.6803 29.3053L98.2402 29.4556V30.0354H92.3223V29.4556L92.8391 29.3268C93.4852 29.155 93.5498 29.0906 93.5498 28.1028V22.4187C93.5498 21.1303 93.076 20.7223 92.0854 20.7223C91.4174 20.7425 90.7537 20.8361 90.1062 21.0014V28.1307C90.1062 29.1399 90.1709 29.1829 90.8169 29.3547L91.3338 29.4835V30.0633H85.4137V29.4835L85.3684 29.4792Z" fill="black"/>
<path d="M98.6524 24.5635C98.6524 20.5071 101.536 18.7656 104.398 18.7656C107.478 18.7656 110.167 20.6102 110.167 24.4518C110.167 28.5082 107.327 30.2905 104.398 30.2905C101.321 30.2948 98.6524 28.4481 98.6524 24.5635ZM106.621 24.6709C106.621 20.3998 105.802 19.5859 104.338 19.5859C103.005 19.5859 102.208 20.5501 102.208 24.1985C102.208 28.534 102.919 29.4788 104.467 29.4788C105.733 29.4788 106.616 28.7272 106.616 24.6709H106.621Z" fill="black"/>
<path d="M112.015 27.3768V20.2905H110.682V19.7795C111.496 19.4796 112.235 19.0048 112.845 18.3888C113.454 17.7728 113.921 17.0307 114.211 16.2148H115.417V19.0494H118.236L117.957 20.2927H115.417V27.1642C115.417 28.2143 115.741 28.6438 116.794 28.6438C117.308 28.63 117.821 28.5653 118.323 28.4505V29.0518C117.407 29.8847 116.204 30.3312 114.965 30.2972C113.049 30.2951 112.015 29.4576 112.015 27.3768Z" fill="black"/>
<path d="M118.749 24.4994C118.749 20.8081 121.482 18.7703 124.301 18.7703C127.23 18.7703 129.058 20.2283 129.123 24.0721H122.113C122.178 27.5487 123.491 28.4914 125.686 28.4914C126.775 28.4863 127.846 28.2149 128.806 27.7011V28.4076C128.224 29.0133 127.526 29.4964 126.753 29.8284C125.98 30.1603 125.149 30.3344 124.307 30.3403C120.584 30.2952 118.749 28.1048 118.749 24.4994ZM122.085 23.2561L125.722 23.0628C125.722 20.5075 125.378 19.5648 124.107 19.5648C123.039 19.5648 122.178 20.5934 122.091 23.2561H122.085Z" fill="black"/>
<path d="M18.2067 17.0049C18.2315 17.3506 18.1306 17.6937 17.9224 17.9712C17.6424 18.231 17.2053 18.2525 16.9533 18.2525H14.1967C13.6652 18.2375 13.1331 18.2519 12.6031 18.2955C12.4328 18.3265 12.2666 18.3769 12.1078 18.4458C12.0755 18.4587 12.0647 18.4458 12.0863 18.4243L18.3789 12.0466C18.4005 12.0252 18.4134 12.0337 18.4005 12.0681C18.3314 12.2264 18.2808 12.3921 18.2497 12.562C18.206 13.0905 18.1916 13.621 18.2067 14.151V17.0049ZM24.0535 36.2904C23.4897 35.9363 23.0473 35.4195 22.7851 34.8087C22.5893 34.3155 22.518 33.782 22.5775 33.255C22.6369 32.7279 22.8252 32.2235 23.1259 31.786C23.4266 31.3486 23.8305 30.9914 24.302 30.746C24.7736 30.5006 25.2983 30.3745 25.8302 30.3787C25.9576 30.3789 26.0838 30.4044 26.2013 30.4535C26.3188 30.5027 26.4254 30.5745 26.5149 30.665C26.6044 30.7554 26.675 30.8627 26.7227 30.9805C26.7704 31.0983 26.7943 31.2244 26.7928 31.3514C26.791 31.5237 26.7437 31.6924 26.6556 31.8406C26.5675 31.9887 26.4418 32.1111 26.2911 32.1953C26.1765 32.2562 26.0529 32.2982 25.925 32.3199C25.6735 32.339 25.4304 32.4186 25.2165 32.5518C25.0989 32.6397 25.0032 32.7534 24.9367 32.8841C24.8702 33.0148 24.8348 33.159 24.8331 33.3055C24.8323 33.6191 24.9562 33.9203 25.1777 34.143C25.3696 34.335 25.5979 34.4871 25.8493 34.5903C26.1007 34.6935 26.3702 34.7459 26.6421 34.7443C26.99 34.7445 27.3346 34.6764 27.6561 34.5438C27.9776 34.4111 28.2697 34.2166 28.5158 33.9713C28.7618 33.726 28.9569 33.4347 29.0899 33.1141C29.2229 32.7935 29.2913 32.4499 29.291 32.103C29.291 30.7931 28.408 29.6335 27.2451 29.1182C27.0154 29.0249 26.7775 28.953 26.5344 28.9034C26.2114 28.839 25.9099 28.7961 25.8884 28.7961C24.9839 28.6887 22.7226 27.9801 22.5719 25.983C22.5719 25.983 21.9043 28.9893 20.5691 29.8053C20.4114 29.8821 20.2452 29.9397 20.0738 29.9771C19.9179 30.0116 19.7594 30.0331 19.6 30.0415C17.4249 30.1704 15.1206 29.4832 13.527 27.8512C13.527 27.8512 12.4502 26.9708 11.8903 24.5013C11.7611 23.9001 11.5027 22.8264 11.3519 21.8171C11.2873 21.4521 11.2658 21.1729 11.2442 20.9152C11.2442 19.8738 11.8903 19.1544 12.6979 19.0535H12.8249H17.0868C17.8406 19.0535 18.2713 18.8602 18.5512 18.6025C18.9173 18.2589 19.0035 17.7651 19.0035 17.1853V12.7875C19.0035 12.7574 19.0035 12.6865 19.0035 12.6608C19.1047 11.8577 19.8261 11.2113 20.8706 11.2113H21.3874C21.626 11.2127 21.8642 11.2306 22.1003 11.265C22.2955 11.293 22.489 11.3325 22.6796 11.3831C23.9932 11.7095 24.2732 13.0366 24.2732 13.0366L27.9988 13.6808C29.1833 13.8955 32.1121 14.0888 32.672 17.0307C33.9857 24.0311 33.1889 30.8167 33.1243 30.8167C32.1983 37.4306 26.6852 37.1085 26.6852 37.1085C25.7465 37.0991 24.8313 36.8146 24.0535 36.2904ZM29.0175 22.2101C28.3046 22.1371 27.6995 22.4248 27.4777 22.966C27.4298 23.0586 27.409 23.1627 27.4174 23.2666C27.4265 23.2913 27.4411 23.3136 27.4602 23.3318C27.4792 23.35 27.5021 23.3637 27.5272 23.3718C27.9522 23.5203 28.3957 23.6091 28.8452 23.6359C29.4676 23.7111 29.9047 23.7519 30.1868 23.6918C30.2132 23.6897 30.2387 23.6816 30.2614 23.6682C30.2842 23.6548 30.3036 23.6364 30.3182 23.6145C30.3524 23.5156 30.3569 23.4088 30.3311 23.3074C30.2385 22.7319 29.726 22.3153 29.0175 22.2187V22.2101Z" fill="#00A82D"/>
</g>
<defs>
<clipPath id="clip0">
<rect width="140.377" height="48" fill="white" transform="translate(-0.000244141)"/>
</clipPath>
</defs>
</svg>
