<svg width="24" height="24" viewBox="0 0 24 24" fill="none" xmlns="http://www.w3.org/2000/svg">
<path fill-rule="evenodd" clip-rule="evenodd" d="M20.4554 19.36C20.2322 19.756 19.821 20 19.3746 20H4.24738C3.80177 20 3.38976 19.756 3.1674 19.36C2.9442 18.964 2.9442 18.476 3.1674 18.08L10.7306 4.63999C10.9538 4.24399 11.3658 4 11.8114 4C12.257 4 12.669 4.24399 12.8914 4.63999L20.4554 18.08C20.6786 18.476 20.6786 18.964 20.4554 19.36ZM11.8242 9.59998C12.2658 9.59998 12.6242 9.95837 12.6242 10.4V12C12.6242 13.3256 12.2658 15.2 11.8242 15.2C11.3826 15.2 11.0242 13.3256 11.0242 12V10.4C11.0242 9.95837 11.3826 9.59998 11.8242 9.59998ZM12.6242 16.8C12.6242 16.3584 12.2658 16 11.8242 16C11.3826 16 11.0242 16.3584 11.0242 16.8C11.0242 17.2416 11.3826 17.6 11.8242 17.6C12.2658 17.6 12.6242 17.2416 12.6242 16.8Z" fill="#F5CC05"/>
</svg>
