<svg xmlns="http://www.w3.org/2000/svg" fill="#7a8083" width="23" height="23" viewBox="0 0 23 23">
    <path d="M21.5 23h-2a1.5 1.5 0 0 1-1.5-1.5v-2a1.5 1.5 0 0 1 1.5-1.5h2a1.5 1.5 0 0 1 1.5 1.5v2a1.5 1.5 0 0 1-1.5 1.5zm0-12h-2A1.5 1.5 0 0 1 18 9.5v-2A1.5 1.5 0 0 1 19.5 6h2A1.5 1.5 0 0 1 23 7.5v2a1.5 1.5 0 0 1-1.5 1.5zm-6 6h-2a1.5 1.5 0 0 1-1.5-1.5v-2a1.5 1.5 0 0 1 1.5-1.5h2a1.5 1.5 0 0 1 1.5 1.5v2a1.5 1.5 0 0 1-1.5 1.5zm0-6h-2A1.5 1.5 0 0 1 12 9.5v-2A1.5 1.5 0 0 1 13.5 6h2A1.5 1.5 0 0 1 17 7.5v2a1.5 1.5 0 0 1-1.5 1.5zm0-6h-2A1.5 1.5 0 0 1 12 3.5v-2A1.5 1.5 0 0 1 13.5 0h2A1.5 1.5 0 0 1 17 1.5v2A1.5 1.5 0 0 1 15.5 5zm-6 12h-2A1.5 1.5 0 0 1 6 15.5v-2A1.5 1.5 0 0 1 7.5 12h2a1.5 1.5 0 0 1 1.5 1.5v2A1.5 1.5 0 0 1 9.5 17zm0-6h-2A1.5 1.5 0 0 1 6 9.5v-2A1.5 1.5 0 0 1 7.5 6h2A1.5 1.5 0 0 1 11 7.5v2A1.5 1.5 0 0 1 9.5 11zm-6 12h-2A1.5 1.5 0 0 1 0 21.5v-2A1.5 1.5 0 0 1 1.5 18h2A1.5 1.5 0 0 1 5 19.5v2A1.5 1.5 0 0 1 3.5 23zm0-12h-2A1.5 1.5 0 0 1 0 9.5v-2A1.5 1.5 0 0 1 1.5 6h2A1.5 1.5 0 0 1 5 7.5v2A1.5 1.5 0 0 1 3.5 11zm0-6h-2A1.5 1.5 0 0 1 0 3.5v-2A1.5 1.5 0 0 1 1.5 0h2A1.5 1.5 0 0 1 5 1.5v2A1.5 1.5 0 0 1 3.5 5z"/>
</svg>
