<svg width="24" height="24" viewBox="0 0 24 24" xmlns="http://www.w3.org/2000/svg">
  <path fill-rule="evenodd" clip-rule="evenodd" d="M20.334 8.59978C20.1114 8.05229 19.8367 7.53221 19.5136 7.04429C19.5524 6.88354 19.579 6.71806 19.579 6.54596C19.579 5.37059 18.625 4.41838 17.4474 4.41838C17.275 4.41838 17.1092 4.44486 16.9481 4.48363C16.4593 4.16118 15.9382 3.88696 15.3897 3.66475C15.9714 3.24964 16.6781 3 17.4474 3C19.4094 3 21 4.58765 21 6.54596C21 7.31378 20.7499 8.01919 20.334 8.59978ZM20.0527 11.9831C20.0527 13.9377 19.3525 15.7286 18.1901 17.1215L19.4842 19.4107C19.6803 19.7578 19.5638 20.2022 19.2237 20.4027C18.8836 20.6031 18.4497 20.484 18.2536 20.1369L17.1404 18.1682C15.7459 19.3247 13.9544 20.0206 12 20.0206C10.0456 20.0206 8.25412 19.3247 6.8596 18.1682L5.74739 20.1369C5.55033 20.484 5.11644 20.6031 4.77634 20.4027C4.43623 20.2022 4.3197 19.7578 4.51581 19.4107L5.80991 17.1215C4.64749 15.7286 3.94739 13.9377 3.94739 11.9831C3.94739 7.54452 7.55307 3.94561 12 3.94561C16.447 3.94561 20.0527 7.54452 20.0527 11.9831ZM12 5.36396C8.33746 5.36396 5.36841 8.32744 5.36841 11.9831C5.36841 15.6387 8.33746 18.6022 12 18.6022C15.6625 18.6022 18.6316 15.6387 18.6316 11.9831C18.6316 8.32744 15.6625 5.36396 12 5.36396ZM11.3842 14.6742C11.1976 14.8605 10.8944 14.8605 10.7078 14.6742L8.34222 12.3159C8.15464 12.1297 8.15464 11.828 8.34222 11.6417C8.52885 11.4554 8.83106 11.4554 9.0177 11.6417L11.046 13.6634L15.4409 9.28343C15.6275 9.09715 15.9306 9.09715 16.1173 9.28343C16.3039 9.46876 16.3039 9.77041 16.1173 9.95669L11.3842 14.6742ZM6.55263 4.41838C5.37505 4.41838 4.42105 5.37059 4.42105 6.54596C4.42105 6.71806 4.44758 6.88354 4.48642 7.04429C4.16337 7.53221 3.88863 8.05229 3.666 8.59978C3.25011 8.01919 3 7.31378 3 6.54596C3 4.58765 4.59063 3 6.55263 3C7.32189 3 8.02863 3.24964 8.61032 3.66475C8.06179 3.88696 7.54074 4.16118 7.05189 4.48363C6.89084 4.44486 6.72505 4.41838 6.55263 4.41838Z"/>
</svg>
