<svg xmlns="http://www.w3.org/2000/svg" width="24" height="24" viewBox="0 0 24 24">
    <path d="M21.341 13.375l-2.513.468a6.31 6.31 0 0 1-.689 1.675l1.453 2.118c.197.321.173.764-.123 1.035l-.788.788c-.271.296-.715.321-1.035.123l-2.119-1.453a6.298 6.298 0 0 1-1.675.69l-.468 2.513a.845.845 0 0 1-.813.665h-1.133a.845.845 0 0 1-.813-.665l-.468-2.513a6.298 6.298 0 0 1-1.675-.69l-2.094 1.453c-.32.198-.788.173-1.059-.123l-.789-.788c-.295-.271-.32-.714-.123-1.035l1.454-2.118a6.312 6.312 0 0 1-.69-1.675l-2.513-.468a.845.845 0 0 1-.665-.813v-1.134c0-.394.296-.739.665-.812l2.513-.469a7.08 7.08 0 0 1 .69-1.675L4.417 6.378c-.197-.32-.172-.788.123-1.059l.789-.788c.271-.296.739-.32 1.059-.123l2.094 1.453a6.298 6.298 0 0 1 1.675-.69l.468-2.512a.845.845 0 0 1 .813-.666h1.133c.394 0 .739.296.813.666l.468 2.512a6.298 6.298 0 0 1 1.675.69l2.119-1.453c.32-.197.764-.173 1.035.123l.788.788c.296.271.32.739.123 1.059l-1.453 2.094c.295.518.542 1.109.689 1.675l2.513.469c.37.073.665.418.665.812v1.134a.844.844 0 0 1-.665.813zm-9.336-3.382a2.004 2.004 0 0 0-2.002 2.002c0 1.103.898 2.002 2.002 2.002a2.005 2.005 0 0 0 2.002-2.002 2.004 2.004 0 0 0-2.002-2.002z"/>
</svg>
