<?xml version="1.0" encoding="UTF-8" standalone="no"?>
<svg fill="B5B8BE" width="12px" height="12px" viewBox="0 0 12 12" version="1.1" xmlns="http://www.w3.org/2000/svg" xmlns:xlink="http://www.w3.org/1999/xlink">
    <path d="M7.85501066,5.53333333 C7.20255864,6.41333333 7.39445629,7.25333333 7.39445629,7.25333333 C7.39445629,8.08 10.7974414,7.66666667 10.7974414,9.74666667 L10.7974414,10.5866667 C10.7974414,10.8133333 10.6183369,11 10.4008529,11 L1.59914712,11 C1.38166311,11 1.20255864,10.8133333 1.20255864,10.5866667 L1.20255864,9.74666667 C1.20255864,7.66666667 4.60554371,8.08 4.60554371,7.25333333 C4.60554371,7.25333333 4.79744136,6.41333333 4.13219616,5.53333333 C3.50533049,5.26666667 3.60767591,4.54666667 3.60767591,4.49333333 C3.60767591,4.49333333 3.62046908,4.08 4.00426439,3.97333333 L4.00426439,3.08 C4.00426439,1.93333333 4.89978678,1 6,1 C7.10021322,1 7.99573561,1.93333333 7.99573561,3.08 L7.99573561,3.97333333 C8.37953092,4.08 8.40511727,4.33333333 8.40511727,4.33333333 C8.40511727,4.33333333 8.49466951,5.26666667 7.85501066,5.53333333 Z M3.40298507,3.6 C3.108742,3.86666667 3.00639659,4.22666667 3.00639659,4.46666667 C2.95522388,5.16 3.2238806,5.73333333 3.73560768,6.02666667 C4.04264392,6.49333333 4.04264392,6.90666667 4.02985075,7.05333333 C3.87633262,7.12 3.5565032,7.2 3.31343284,7.26666667 C2.39232409,7.52 0.895522388,7.92 0.639658849,9.33333333 L0.409381663,9.33333333 C0.179104478,9.33333333 0,9.14666667 0,8.92 L0,8.04 C0,6.65333333 1.88059701,6.93333333 1.88059701,6.38666667 C1.88059701,6.38666667 2.00852878,5.82666667 1.57356077,5.25333333 C1.15138593,5.08 1.21535181,4.45333333 1.21535181,4.45333333 C1.21535181,4.45333333 1.22814499,4.28 1.48400853,4.21333333 L1.48400853,3.62666667 C1.48400853,2.86666667 2.07249467,2.25333333 2.80170576,2.25333333 L3.54371002,2.25333333 C3.45415778,2.52 3.40298507,2.78666667 3.40298507,3.08 L3.40298507,3.6 Z M11.3603412,9.33333333 C11.1044776,7.92 9.60767591,7.52 8.68656716,7.26666667 C8.4434968,7.2 8.12366738,7.12 7.97014925,7.05333333 C7.95735608,6.90666667 7.9445629,6.49333333 8.25159915,6.02666667 C8.92963753,5.62666667 9.04477612,4.76 8.99360341,4.28 C8.98081023,4.05333333 8.86567164,3.78666667 8.59701493,3.58666667 L8.59701493,3.08 C8.59701493,2.78666667 8.54584222,2.52 8.45628998,2.25333333 L9.19829424,2.25333333 C9.92750533,2.25333333 10.5159915,2.86666667 10.5159915,3.62666667 L10.5159915,4.21333333 C10.771855,4.28 10.7846482,4.45333333 10.7846482,4.45333333 C10.7846482,4.45333333 10.8486141,5.08 10.4264392,5.25333333 C9.99147122,5.82666667 10.119403,6.38666667 10.119403,6.38666667 C10.119403,6.93333333 12,6.65333333 12,8.04 L12,8.92 C12,9.14666667 11.8208955,9.33333333 11.6034115,9.33333333 L11.3603412,9.33333333 Z"></path>
</svg>
