<svg width="24" height="24" viewBox="0 0 24 24" xmlns="http://www.w3.org/2000/svg">
  <path fill-rule="evenodd" clip-rule="evenodd" d="M17.3204 9.05897C17.4329 9.16639 17.5813 9.22685 17.7359 9.22831C17.7356 9.22831 17.7356 9.22831 17.7353 9.22831H17.7377C17.7371 9.22831 17.7365 9.22831 17.7359 9.22831C17.9864 9.22369 18.2101 9.06772 18.3028 8.83281C18.3956 8.59764 18.3393 8.32915 18.1601 8.15202L12.9347 3.16898C12.6955 2.94367 12.3243 2.94367 12.0851 3.16898L6.8597 8.15202C6.65531 8.39618 6.66526 8.75616 6.88279 8.9884C7.10032 9.22065 7.45609 9.25106 7.70919 9.05897L11.8975 5.0594V15.9156C11.9028 16.2547 12.1739 16.5282 12.5099 16.5335C12.675 16.5335 12.8333 16.4675 12.95 16.3497C13.0667 16.2319 13.1322 16.0722 13.1322 15.9057V5.06767L17.3204 9.05897ZM18.7725 20.5H6.26704C5.01771 20.5 4.00495 19.4782 4.00495 18.2179V13.9523C3.97463 13.711 4.08526 13.4737 4.2888 13.3433C4.4924 13.2129 4.75231 13.2129 4.95585 13.3433C5.15945 13.4737 5.27002 13.711 5.2397 13.9523V18.2179C5.2397 18.7682 5.68199 19.2145 6.22749 19.2145H18.7725C19.3181 19.2145 19.7603 18.7682 19.7603 18.2179V13.9523C19.73 13.711 19.8406 13.4737 20.0441 13.3433C20.2477 13.2129 20.5076 13.2129 20.7112 13.3433C20.9147 13.4737 21.0254 13.711 20.995 13.9523V18.2179C20.9952 19.4629 20.0063 20.4783 18.7725 20.5Z"/>
</svg>
