<svg width="24" height="24" viewBox="0 0 24 24" fill="#B5B8BE" xmlns="http://www.w3.org/2000/svg">
  <path fill-rule="evenodd" clip-rule="evenodd" d="M15.931 5H3V4H15.931C17.0737 4 18 4.89543 18 6C18 7.10457 17.0737 8 15.931 8H3V7H15.931C16.5024 7 16.9655 6.55228 16.9655 6C16.9655 5.44772 16.5024 5 15.931 5Z"/>
  <path fill-rule="evenodd" clip-rule="evenodd" d="M18.931 11H6V10H18.931C20.0737 10 21 10.8954 21 12C21 13.1046 20.0737 14 18.931 14H6V13H18.931C19.5024 13 19.9655 12.5523 19.9655 12C19.9655 11.4477 19.5024 11 18.931 11Z"/>
  <path fill-rule="evenodd" clip-rule="evenodd" d="M15.931 17H3V16H15.931C17.0737 16 18 16.8954 18 18C18 19.1046 17.0737 20 15.931 20H3V19H15.931C16.5024 19 16.9655 18.5523 16.9655 18C16.9655 17.4477 16.5024 17 15.931 17Z"/>
</svg>
