<svg xmlns="http://www.w3.org/2000/svg" fill="#00BE20" width="40" height="40" viewBox="0 0 40 40">
    <g fill="none" fill-rule="evenodd">
        <circle cx="24" cy="20" r="9.333" fill="#FFF" />
        <path fill="#00BE20" d="M23.999 30.667a10.663 10.663 0 0 1-9.332-5.502v.168H8.668C7.212 25.333 4 20 4 20s3.212-5.333 4.668-5.333h5.999v.168a10.663 10.663 0 0 1 9.332-5.502c5.89 0 10.668 4.776 10.668 10.667 0 5.89-4.778 10.667-10.668 10.667zm0-18.667a8 8 0 1 0 0 16A8.002 8.002 0 0 0 32 20c0-4.417-3.583-8-8.001-8zm4.433 5.781l-4.72 5.771c-.19.237-.476.445-.781.445h-.06c-.29 0-.559-.156-.762-.361l-2.465-2.485a1.094 1.094 0 0 1 0-1.536 1.08 1.08 0 0 1 .763-.323c.286 0 .558.112.762.312l1.612 1.612 3.967-4.804c.207-.256.513-.407.843-.407.246 0 .481.083.673.238.225.178.367.434.399.721.03.285-.051.59-.231.817z"/>
    </g>
</svg>
