<svg xmlns="http://www.w3.org/2000/svg" fill="#FF8201" width="31" height="22" viewBox="0 0 31 22">
    <g fill="none" fill-rule="evenodd" transform="translate(-4 -9)">
        <circle cx="24" cy="20" r="9.333" fill="#FFF"  />
        <path fill="#FF8201"  d="M23.999 30.667a10.661 10.661 0 0 1-9.332-5.502v.168H8.668C7.213 25.333 4 20 4 20s3.213-5.333 4.668-5.333h5.999v.168a10.664 10.664 0 0 1 9.332-5.502c5.89 0 10.668 4.776 10.668 10.667 0 5.89-4.778 10.667-10.668 10.667zm0-18.667a8 8 0 1 0 0 16 8 8 0 0 0 0-16zm.664 9.372h-.003a.657.657 0 0 1-.661.607.658.658 0 0 1-.662-.607l-.67-2.705V16c.024-.625.694-1.333 1.333-1.333.635 0 1.301.716 1.333 1.333-.002.101.027 2.576 0 2.667l-.67 2.705zM24 22.667c.524 0 1.333.82 1.333 1.333 0 .51-.809 1.333-1.333 1.333-.524 0-1.333-.822-1.333-1.333 0-.513.809-1.333 1.333-1.333z"/>
    </g>
</svg>
