<svg xmlns="http://www.w3.org/2000/svg" fill="#3178DC" width="31" height="22" viewBox="0 0 31 22">
    <g fill="none" fill-rule="evenodd" transform="translate(-4 -9)">
        <circle cx="24" cy="20" r="9.333" fill="#FFF" />
        <path fill="#3178DC" d="M23.999 30.667a10.661 10.661 0 0 1-9.332-5.502v.168H8.668C7.213 25.333 4 20 4 20s3.213-5.333 4.668-5.333h5.999v.168a10.661 10.661 0 0 1 9.332-5.502c5.89 0 10.668 4.776 10.668 10.667 0 5.89-4.778 10.667-10.668 10.667zm0-18.667a8 8 0 1 0 0 16 8 8 0 0 0 0-16zm1.334 9.333h-2.666V20c0-.59.762-1.333 1.333-1.333.825 0 1.548-.238 1.548-.807 0-.573-.723-.527-1.548-.527.295 0-2.884-.082-2.779.022a1.095 1.095 0 0 1-.046-1.511c.689-.761 1.72-1.177 2.825-1.177 1.993 0 3.616 1.421 3.616 3.193 0 1.452-.796 3.08-2.283 3.473zM24 22.683a1.333 1.333 0 1 1 0 2.666 1.333 1.333 0 0 1 0-2.666z"/>
    </g>
</svg>
