<svg xmlns="http://www.w3.org/2000/svg" fill="#F0190A" width="31" height="22" viewBox="0 0 31 22">
    <g fill="none" fill-rule="evenodd" transform="translate(-4 -9)">
        <circle cx="24" cy="20" r="9.333" fill="#FFF" />
        <path fill="#F0190A" d="M23.999 30.667a10.661 10.661 0 0 1-9.332-5.502v.168H8.668C7.213 25.333 4 20 4 20s3.213-5.333 4.668-5.333h5.999v.168a10.664 10.664 0 0 1 9.332-5.502c5.89 0 10.668 4.776 10.668 10.667 0 5.89-4.778 10.667-10.668 10.667zm0-18.667a8 8 0 1 0 0 16 8 8 0 0 0 0-16zm1.416 7.995l2.3 2.297a.997.997 0 0 1 0 1.416 1.008 1.008 0 0 1-1.418 0l-2.3-2.296-2.3 2.296a1.01 1.01 0 0 1-1.418 0 1.002 1.002 0 0 1 0-1.416l2.301-2.297-2.301-2.298a1.002 1.002 0 1 1 1.418-1.416L24 18.58l2.298-2.298c.195-.193.452-.294.71-.294.256 0 .514.101.709.294a1 1 0 0 1 0 1.416l-2.301 2.298z"/>
    </g>
</svg>
