<svg xmlns="http://www.w3.org/2000/svg" fill="#F1135C" width="31" height="22" viewBox="0 0 31 22">
    <g fill="none" fill-rule="evenodd" transform="translate(-4 -9)">
        <circle cx="24" cy="20" r="9.333" fill="#FFF" />
        <path fill="#F1135C" d="M23.999 30.667a10.664 10.664 0 0 1-9.332-5.502v.168H8.668C7.212 25.333 4 20 4 20s3.212-5.333 4.668-5.333h5.999v.168a10.664 10.664 0 0 1 9.332-5.502c5.89 0 10.668 4.776 10.668 10.667 0 5.89-4.778 10.667-10.668 10.667zm0-18.667a8 8 0 1 0 0 16 8 8 0 0 0 0-16zm3.568 7.836c-.266.363-.556.71-.826 1.073-.417.56-.761 1.156-.949 1.831a1.974 1.974 0 0 0-.053.724.974.974 0 0 1-.01.224c-.032.203-.178.328-.389.343a1.545 1.545 0 0 1-.637-.094c-.839-.297-1.656-.64-2.419-1.098-.604-.366-1.155-.787-1.621-1.311-.448-.501-.772-1.064-.843-1.741-.09-.883.155-1.662.836-2.274.38-.341.83-.477 1.343-.346a.894.894 0 0 1 .196.073c.17.083.288.208.304.4.017.204-.1.333-.259.43-.093.058-.197.091-.317.146a.84.84 0 0 0 .541-.161c.17-.134.339-.274.479-.435.653-.756 1.406-1.368 2.416-1.599 1.005-.234 2.149.25 2.626 1.104.23.408.251.854.182 1.307-.08.516-.291.983-.6 1.404z"/>
    </g>
</svg>
