<svg xmlns="http://www.w3.org/2000/svg" fill="#7a8083" width="15" height="21" viewBox="0 0 15 21">
    <path d="M15 20.294h-3.53V18.61c-1.021.887-2.624 1.685-5.083 1.685C2.507 20.294 0 17.82 0 13.992 0 9.652 3.133 7.06 8.382 7.06h3.07c-.18-2.16-1.69-3.53-3.952-3.53-.797 0-2.13 0-3.366 1.44l-.31.361-2.407-2.407.233-.307C2.968.881 4.937 0 7.5 0 12.196 0 15 3.133 15 8.382v11.912zm-5.735-9.706c-3.806 0-5.736 1.04-5.736 3.088 0 2.07 1.19 3.087 3.64 3.11h.001c1.37 0 2.4-.464 3.115-1.383.79-1.015 1.19-2.56 1.19-4.59v-.225h-2.21z"/>
</svg>
